<mxfile host="app.diagrams.net" modified="2023-09-06T04:33:06.094Z" agent="Mozilla/5.0 (Windows NT 10.0; Win64; x64) AppleWebKit/537.36 (KHTML, like Gecko) Chrome/116.0.0.0 Safari/537.36" etag="u2B3WAg-W9vj45FKNP7t" version="21.7.2" type="device">
  <diagram name="페이지-1" id="MNTAD_qOYAbZuAuZu5rR">
    <mxGraphModel dx="2823" dy="2205" grid="1" gridSize="10" guides="1" tooltips="1" connect="1" arrows="1" fold="1" page="1" pageScale="1" pageWidth="827" pageHeight="1169" math="0" shadow="0">
      <root>
        <mxCell id="0" />
        <mxCell id="1" parent="0" />
        <mxCell id="abDruwCRlRrZRBbUpxFw-99" value="" style="rounded=0;whiteSpace=wrap;html=1;" vertex="1" parent="1">
          <mxGeometry x="-320" y="-80" width="1280" height="1120" as="geometry" />
        </mxCell>
        <mxCell id="abDruwCRlRrZRBbUpxFw-1" value="" style="rounded=0;whiteSpace=wrap;html=1;" vertex="1" parent="1">
          <mxGeometry x="-240" width="960" height="440" as="geometry" />
        </mxCell>
        <mxCell id="abDruwCRlRrZRBbUpxFw-2" value="" style="rounded=0;whiteSpace=wrap;html=1;" vertex="1" parent="1">
          <mxGeometry x="-240" y="520" width="1110" height="440" as="geometry" />
        </mxCell>
        <mxCell id="abDruwCRlRrZRBbUpxFw-3" value="" style="rounded=0;whiteSpace=wrap;html=1;" vertex="1" parent="1">
          <mxGeometry x="-190" y="80" width="820" height="280" as="geometry" />
        </mxCell>
        <mxCell id="abDruwCRlRrZRBbUpxFw-4" value="회원" style="shape=table;startSize=30;container=1;collapsible=1;childLayout=tableLayout;fixedRows=1;rowLines=0;fontStyle=1;align=center;resizeLast=1;fillColor=#dae8fc;strokeColor=#6c8ebf;" vertex="1" parent="1">
          <mxGeometry x="-150" y="120" width="180" height="190" as="geometry">
            <mxRectangle x="240" y="210" width="60" height="30" as="alternateBounds" />
          </mxGeometry>
        </mxCell>
        <mxCell id="abDruwCRlRrZRBbUpxFw-5" value="" style="shape=tableRow;horizontal=0;startSize=0;swimlaneHead=0;swimlaneBody=0;fillColor=#dae8fc;collapsible=0;dropTarget=0;points=[[0,0.5],[1,0.5]];portConstraint=eastwest;top=0;left=0;right=0;bottom=1;strokeColor=#6c8ebf;" vertex="1" parent="abDruwCRlRrZRBbUpxFw-4">
          <mxGeometry y="30" width="180" height="30" as="geometry" />
        </mxCell>
        <mxCell id="abDruwCRlRrZRBbUpxFw-6" value="PK" style="shape=partialRectangle;connectable=0;fillColor=#dae8fc;top=0;left=0;bottom=0;right=0;fontStyle=1;overflow=hidden;strokeColor=#6c8ebf;" vertex="1" parent="abDruwCRlRrZRBbUpxFw-5">
          <mxGeometry width="30" height="30" as="geometry">
            <mxRectangle width="30" height="30" as="alternateBounds" />
          </mxGeometry>
        </mxCell>
        <mxCell id="abDruwCRlRrZRBbUpxFw-7" value="UniqueID" style="shape=partialRectangle;connectable=0;fillColor=#dae8fc;top=0;left=0;bottom=0;right=0;align=left;spacingLeft=6;fontStyle=5;overflow=hidden;strokeColor=#6c8ebf;" vertex="1" parent="abDruwCRlRrZRBbUpxFw-5">
          <mxGeometry x="30" width="150" height="30" as="geometry">
            <mxRectangle width="150" height="30" as="alternateBounds" />
          </mxGeometry>
        </mxCell>
        <mxCell id="abDruwCRlRrZRBbUpxFw-8" value="" style="shape=tableRow;horizontal=0;startSize=0;swimlaneHead=0;swimlaneBody=0;fillColor=#dae8fc;collapsible=0;dropTarget=0;points=[[0,0.5],[1,0.5]];portConstraint=eastwest;top=0;left=0;right=0;bottom=0;strokeColor=#6c8ebf;" vertex="1" parent="abDruwCRlRrZRBbUpxFw-4">
          <mxGeometry y="60" width="180" height="30" as="geometry" />
        </mxCell>
        <mxCell id="abDruwCRlRrZRBbUpxFw-9" value="" style="shape=partialRectangle;connectable=0;fillColor=#dae8fc;top=0;left=0;bottom=0;right=0;editable=1;overflow=hidden;strokeColor=#6c8ebf;" vertex="1" parent="abDruwCRlRrZRBbUpxFw-8">
          <mxGeometry width="30" height="30" as="geometry">
            <mxRectangle width="30" height="30" as="alternateBounds" />
          </mxGeometry>
        </mxCell>
        <mxCell id="abDruwCRlRrZRBbUpxFw-10" value="이름" style="shape=partialRectangle;connectable=0;fillColor=#dae8fc;top=0;left=0;bottom=0;right=0;align=left;spacingLeft=6;overflow=hidden;strokeColor=#6c8ebf;" vertex="1" parent="abDruwCRlRrZRBbUpxFw-8">
          <mxGeometry x="30" width="150" height="30" as="geometry">
            <mxRectangle width="150" height="30" as="alternateBounds" />
          </mxGeometry>
        </mxCell>
        <mxCell id="abDruwCRlRrZRBbUpxFw-11" value="" style="shape=tableRow;horizontal=0;startSize=0;swimlaneHead=0;swimlaneBody=0;fillColor=#dae8fc;collapsible=0;dropTarget=0;points=[[0,0.5],[1,0.5]];portConstraint=eastwest;top=0;left=0;right=0;bottom=0;strokeColor=#6c8ebf;" vertex="1" parent="abDruwCRlRrZRBbUpxFw-4">
          <mxGeometry y="90" width="180" height="30" as="geometry" />
        </mxCell>
        <mxCell id="abDruwCRlRrZRBbUpxFw-12" value="" style="shape=partialRectangle;connectable=0;fillColor=#dae8fc;top=0;left=0;bottom=0;right=0;editable=1;overflow=hidden;strokeColor=#6c8ebf;" vertex="1" parent="abDruwCRlRrZRBbUpxFw-11">
          <mxGeometry width="30" height="30" as="geometry">
            <mxRectangle width="30" height="30" as="alternateBounds" />
          </mxGeometry>
        </mxCell>
        <mxCell id="abDruwCRlRrZRBbUpxFw-13" value="이메일" style="shape=partialRectangle;connectable=0;fillColor=#dae8fc;top=0;left=0;bottom=0;right=0;align=left;spacingLeft=6;overflow=hidden;strokeColor=#6c8ebf;" vertex="1" parent="abDruwCRlRrZRBbUpxFw-11">
          <mxGeometry x="30" width="150" height="30" as="geometry">
            <mxRectangle width="150" height="30" as="alternateBounds" />
          </mxGeometry>
        </mxCell>
        <mxCell id="abDruwCRlRrZRBbUpxFw-14" style="shape=tableRow;horizontal=0;startSize=0;swimlaneHead=0;swimlaneBody=0;fillColor=#dae8fc;collapsible=0;dropTarget=0;points=[[0,0.5],[1,0.5]];portConstraint=eastwest;top=0;left=0;right=0;bottom=0;strokeColor=#6c8ebf;" vertex="1" parent="abDruwCRlRrZRBbUpxFw-4">
          <mxGeometry y="120" width="180" height="30" as="geometry" />
        </mxCell>
        <mxCell id="abDruwCRlRrZRBbUpxFw-15" style="shape=partialRectangle;connectable=0;fillColor=#dae8fc;top=0;left=0;bottom=0;right=0;editable=1;overflow=hidden;strokeColor=#6c8ebf;" vertex="1" parent="abDruwCRlRrZRBbUpxFw-14">
          <mxGeometry width="30" height="30" as="geometry">
            <mxRectangle width="30" height="30" as="alternateBounds" />
          </mxGeometry>
        </mxCell>
        <mxCell id="abDruwCRlRrZRBbUpxFw-16" value="전화번호" style="shape=partialRectangle;connectable=0;fillColor=#dae8fc;top=0;left=0;bottom=0;right=0;align=left;spacingLeft=6;overflow=hidden;strokeColor=#6c8ebf;" vertex="1" parent="abDruwCRlRrZRBbUpxFw-14">
          <mxGeometry x="30" width="150" height="30" as="geometry">
            <mxRectangle width="150" height="30" as="alternateBounds" />
          </mxGeometry>
        </mxCell>
        <mxCell id="abDruwCRlRrZRBbUpxFw-17" value="" style="shape=tableRow;horizontal=0;startSize=0;swimlaneHead=0;swimlaneBody=0;fillColor=#dae8fc;collapsible=0;dropTarget=0;points=[[0,0.5],[1,0.5]];portConstraint=eastwest;top=0;left=0;right=0;bottom=0;strokeColor=#6c8ebf;" vertex="1" parent="abDruwCRlRrZRBbUpxFw-4">
          <mxGeometry y="150" width="180" height="30" as="geometry" />
        </mxCell>
        <mxCell id="abDruwCRlRrZRBbUpxFw-18" value="" style="shape=partialRectangle;connectable=0;fillColor=#dae8fc;top=0;left=0;bottom=0;right=0;editable=1;overflow=hidden;strokeColor=#6c8ebf;" vertex="1" parent="abDruwCRlRrZRBbUpxFw-17">
          <mxGeometry width="30" height="30" as="geometry">
            <mxRectangle width="30" height="30" as="alternateBounds" />
          </mxGeometry>
        </mxCell>
        <mxCell id="abDruwCRlRrZRBbUpxFw-19" value="주문 리스트" style="shape=partialRectangle;connectable=0;fillColor=#dae8fc;top=0;left=0;bottom=0;right=0;align=left;spacingLeft=6;overflow=hidden;strokeColor=#6c8ebf;" vertex="1" parent="abDruwCRlRrZRBbUpxFw-17">
          <mxGeometry x="30" width="150" height="30" as="geometry">
            <mxRectangle width="150" height="30" as="alternateBounds" />
          </mxGeometry>
        </mxCell>
        <mxCell id="abDruwCRlRrZRBbUpxFw-20" value="주문" style="shape=table;startSize=30;container=1;collapsible=1;childLayout=tableLayout;fixedRows=1;rowLines=0;fontStyle=1;align=center;resizeLast=1;fillColor=#dae8fc;strokeColor=#6c8ebf;" vertex="1" parent="1">
          <mxGeometry x="130" y="120" width="180" height="160" as="geometry">
            <mxRectangle x="240" y="210" width="60" height="30" as="alternateBounds" />
          </mxGeometry>
        </mxCell>
        <mxCell id="abDruwCRlRrZRBbUpxFw-21" value="" style="shape=tableRow;horizontal=0;startSize=0;swimlaneHead=0;swimlaneBody=0;fillColor=#dae8fc;collapsible=0;dropTarget=0;points=[[0,0.5],[1,0.5]];portConstraint=eastwest;top=0;left=0;right=0;bottom=1;strokeColor=#6c8ebf;" vertex="1" parent="abDruwCRlRrZRBbUpxFw-20">
          <mxGeometry y="30" width="180" height="30" as="geometry" />
        </mxCell>
        <mxCell id="abDruwCRlRrZRBbUpxFw-22" value="PK" style="shape=partialRectangle;connectable=0;fillColor=#dae8fc;top=0;left=0;bottom=0;right=0;fontStyle=1;overflow=hidden;strokeColor=#6c8ebf;" vertex="1" parent="abDruwCRlRrZRBbUpxFw-21">
          <mxGeometry width="30" height="30" as="geometry">
            <mxRectangle width="30" height="30" as="alternateBounds" />
          </mxGeometry>
        </mxCell>
        <mxCell id="abDruwCRlRrZRBbUpxFw-23" value="UniqueID" style="shape=partialRectangle;connectable=0;fillColor=#dae8fc;top=0;left=0;bottom=0;right=0;align=left;spacingLeft=6;fontStyle=5;overflow=hidden;strokeColor=#6c8ebf;" vertex="1" parent="abDruwCRlRrZRBbUpxFw-21">
          <mxGeometry x="30" width="150" height="30" as="geometry">
            <mxRectangle width="150" height="30" as="alternateBounds" />
          </mxGeometry>
        </mxCell>
        <mxCell id="abDruwCRlRrZRBbUpxFw-24" value="" style="shape=tableRow;horizontal=0;startSize=0;swimlaneHead=0;swimlaneBody=0;fillColor=#dae8fc;collapsible=0;dropTarget=0;points=[[0,0.5],[1,0.5]];portConstraint=eastwest;top=0;left=0;right=0;bottom=0;strokeColor=#6c8ebf;" vertex="1" parent="abDruwCRlRrZRBbUpxFw-20">
          <mxGeometry y="60" width="180" height="30" as="geometry" />
        </mxCell>
        <mxCell id="abDruwCRlRrZRBbUpxFw-25" value="" style="shape=partialRectangle;connectable=0;fillColor=#dae8fc;top=0;left=0;bottom=0;right=0;editable=1;overflow=hidden;strokeColor=#6c8ebf;" vertex="1" parent="abDruwCRlRrZRBbUpxFw-24">
          <mxGeometry width="30" height="30" as="geometry">
            <mxRectangle width="30" height="30" as="alternateBounds" />
          </mxGeometry>
        </mxCell>
        <mxCell id="abDruwCRlRrZRBbUpxFw-26" value="회원 id" style="shape=partialRectangle;connectable=0;fillColor=#dae8fc;top=0;left=0;bottom=0;right=0;align=left;spacingLeft=6;overflow=hidden;strokeColor=#6c8ebf;" vertex="1" parent="abDruwCRlRrZRBbUpxFw-24">
          <mxGeometry x="30" width="150" height="30" as="geometry">
            <mxRectangle width="150" height="30" as="alternateBounds" />
          </mxGeometry>
        </mxCell>
        <mxCell id="abDruwCRlRrZRBbUpxFw-27" value="" style="shape=tableRow;horizontal=0;startSize=0;swimlaneHead=0;swimlaneBody=0;fillColor=#dae8fc;collapsible=0;dropTarget=0;points=[[0,0.5],[1,0.5]];portConstraint=eastwest;top=0;left=0;right=0;bottom=0;strokeColor=#6c8ebf;" vertex="1" parent="abDruwCRlRrZRBbUpxFw-20">
          <mxGeometry y="90" width="180" height="30" as="geometry" />
        </mxCell>
        <mxCell id="abDruwCRlRrZRBbUpxFw-28" value="" style="shape=partialRectangle;connectable=0;fillColor=#dae8fc;top=0;left=0;bottom=0;right=0;editable=1;overflow=hidden;strokeColor=#6c8ebf;" vertex="1" parent="abDruwCRlRrZRBbUpxFw-27">
          <mxGeometry width="30" height="30" as="geometry">
            <mxRectangle width="30" height="30" as="alternateBounds" />
          </mxGeometry>
        </mxCell>
        <mxCell id="abDruwCRlRrZRBbUpxFw-29" value="주문 날짜" style="shape=partialRectangle;connectable=0;fillColor=#dae8fc;top=0;left=0;bottom=0;right=0;align=left;spacingLeft=6;overflow=hidden;strokeColor=#6c8ebf;" vertex="1" parent="abDruwCRlRrZRBbUpxFw-27">
          <mxGeometry x="30" width="150" height="30" as="geometry">
            <mxRectangle width="150" height="30" as="alternateBounds" />
          </mxGeometry>
        </mxCell>
        <mxCell id="abDruwCRlRrZRBbUpxFw-30" style="shape=tableRow;horizontal=0;startSize=0;swimlaneHead=0;swimlaneBody=0;fillColor=#dae8fc;collapsible=0;dropTarget=0;points=[[0,0.5],[1,0.5]];portConstraint=eastwest;top=0;left=0;right=0;bottom=0;strokeColor=#6c8ebf;" vertex="1" parent="abDruwCRlRrZRBbUpxFw-20">
          <mxGeometry y="120" width="180" height="30" as="geometry" />
        </mxCell>
        <mxCell id="abDruwCRlRrZRBbUpxFw-31" style="shape=partialRectangle;connectable=0;fillColor=#dae8fc;top=0;left=0;bottom=0;right=0;editable=1;overflow=hidden;strokeColor=#6c8ebf;" vertex="1" parent="abDruwCRlRrZRBbUpxFw-30">
          <mxGeometry width="30" height="30" as="geometry">
            <mxRectangle width="30" height="30" as="alternateBounds" />
          </mxGeometry>
        </mxCell>
        <mxCell id="abDruwCRlRrZRBbUpxFw-32" value="주문 아이템 리스트" style="shape=partialRectangle;connectable=0;fillColor=#dae8fc;top=0;left=0;bottom=0;right=0;align=left;spacingLeft=6;overflow=hidden;strokeColor=#6c8ebf;" vertex="1" parent="abDruwCRlRrZRBbUpxFw-30">
          <mxGeometry x="30" width="150" height="30" as="geometry">
            <mxRectangle width="150" height="30" as="alternateBounds" />
          </mxGeometry>
        </mxCell>
        <mxCell id="abDruwCRlRrZRBbUpxFw-33" value="아이템" style="shape=table;startSize=30;container=1;collapsible=1;childLayout=tableLayout;fixedRows=1;rowLines=0;fontStyle=1;align=center;resizeLast=1;fillColor=#dae8fc;strokeColor=#6c8ebf;" vertex="1" parent="1">
          <mxGeometry x="410" y="120" width="180" height="160" as="geometry">
            <mxRectangle x="240" y="210" width="60" height="30" as="alternateBounds" />
          </mxGeometry>
        </mxCell>
        <mxCell id="abDruwCRlRrZRBbUpxFw-34" value="" style="shape=tableRow;horizontal=0;startSize=0;swimlaneHead=0;swimlaneBody=0;fillColor=#dae8fc;collapsible=0;dropTarget=0;points=[[0,0.5],[1,0.5]];portConstraint=eastwest;top=0;left=0;right=0;bottom=1;strokeColor=#6c8ebf;" vertex="1" parent="abDruwCRlRrZRBbUpxFw-33">
          <mxGeometry y="30" width="180" height="30" as="geometry" />
        </mxCell>
        <mxCell id="abDruwCRlRrZRBbUpxFw-35" value="PK" style="shape=partialRectangle;connectable=0;fillColor=#dae8fc;top=0;left=0;bottom=0;right=0;fontStyle=1;overflow=hidden;strokeColor=#6c8ebf;" vertex="1" parent="abDruwCRlRrZRBbUpxFw-34">
          <mxGeometry width="30" height="30" as="geometry">
            <mxRectangle width="30" height="30" as="alternateBounds" />
          </mxGeometry>
        </mxCell>
        <mxCell id="abDruwCRlRrZRBbUpxFw-36" value="UniqueID" style="shape=partialRectangle;connectable=0;fillColor=#dae8fc;top=0;left=0;bottom=0;right=0;align=left;spacingLeft=6;fontStyle=5;overflow=hidden;strokeColor=#6c8ebf;" vertex="1" parent="abDruwCRlRrZRBbUpxFw-34">
          <mxGeometry x="30" width="150" height="30" as="geometry">
            <mxRectangle width="150" height="30" as="alternateBounds" />
          </mxGeometry>
        </mxCell>
        <mxCell id="abDruwCRlRrZRBbUpxFw-37" value="" style="shape=tableRow;horizontal=0;startSize=0;swimlaneHead=0;swimlaneBody=0;fillColor=#dae8fc;collapsible=0;dropTarget=0;points=[[0,0.5],[1,0.5]];portConstraint=eastwest;top=0;left=0;right=0;bottom=0;strokeColor=#6c8ebf;" vertex="1" parent="abDruwCRlRrZRBbUpxFw-33">
          <mxGeometry y="60" width="180" height="30" as="geometry" />
        </mxCell>
        <mxCell id="abDruwCRlRrZRBbUpxFw-38" value="" style="shape=partialRectangle;connectable=0;fillColor=#dae8fc;top=0;left=0;bottom=0;right=0;editable=1;overflow=hidden;strokeColor=#6c8ebf;" vertex="1" parent="abDruwCRlRrZRBbUpxFw-37">
          <mxGeometry width="30" height="30" as="geometry">
            <mxRectangle width="30" height="30" as="alternateBounds" />
          </mxGeometry>
        </mxCell>
        <mxCell id="abDruwCRlRrZRBbUpxFw-39" value="주문 id" style="shape=partialRectangle;connectable=0;fillColor=#dae8fc;top=0;left=0;bottom=0;right=0;align=left;spacingLeft=6;overflow=hidden;strokeColor=#6c8ebf;" vertex="1" parent="abDruwCRlRrZRBbUpxFw-37">
          <mxGeometry x="30" width="150" height="30" as="geometry">
            <mxRectangle width="150" height="30" as="alternateBounds" />
          </mxGeometry>
        </mxCell>
        <mxCell id="abDruwCRlRrZRBbUpxFw-40" value="" style="shape=tableRow;horizontal=0;startSize=0;swimlaneHead=0;swimlaneBody=0;fillColor=#dae8fc;collapsible=0;dropTarget=0;points=[[0,0.5],[1,0.5]];portConstraint=eastwest;top=0;left=0;right=0;bottom=0;strokeColor=#6c8ebf;" vertex="1" parent="abDruwCRlRrZRBbUpxFw-33">
          <mxGeometry y="90" width="180" height="30" as="geometry" />
        </mxCell>
        <mxCell id="abDruwCRlRrZRBbUpxFw-41" value="" style="shape=partialRectangle;connectable=0;fillColor=#dae8fc;top=0;left=0;bottom=0;right=0;editable=1;overflow=hidden;strokeColor=#6c8ebf;" vertex="1" parent="abDruwCRlRrZRBbUpxFw-40">
          <mxGeometry width="30" height="30" as="geometry">
            <mxRectangle width="30" height="30" as="alternateBounds" />
          </mxGeometry>
        </mxCell>
        <mxCell id="abDruwCRlRrZRBbUpxFw-42" value="아이템 이름" style="shape=partialRectangle;connectable=0;fillColor=#dae8fc;top=0;left=0;bottom=0;right=0;align=left;spacingLeft=6;overflow=hidden;strokeColor=#6c8ebf;" vertex="1" parent="abDruwCRlRrZRBbUpxFw-40">
          <mxGeometry x="30" width="150" height="30" as="geometry">
            <mxRectangle width="150" height="30" as="alternateBounds" />
          </mxGeometry>
        </mxCell>
        <mxCell id="abDruwCRlRrZRBbUpxFw-43" style="shape=tableRow;horizontal=0;startSize=0;swimlaneHead=0;swimlaneBody=0;fillColor=#dae8fc;collapsible=0;dropTarget=0;points=[[0,0.5],[1,0.5]];portConstraint=eastwest;top=0;left=0;right=0;bottom=0;strokeColor=#6c8ebf;" vertex="1" parent="abDruwCRlRrZRBbUpxFw-33">
          <mxGeometry y="120" width="180" height="30" as="geometry" />
        </mxCell>
        <mxCell id="abDruwCRlRrZRBbUpxFw-44" style="shape=partialRectangle;connectable=0;fillColor=#dae8fc;top=0;left=0;bottom=0;right=0;editable=1;overflow=hidden;strokeColor=#6c8ebf;" vertex="1" parent="abDruwCRlRrZRBbUpxFw-43">
          <mxGeometry width="30" height="30" as="geometry">
            <mxRectangle width="30" height="30" as="alternateBounds" />
          </mxGeometry>
        </mxCell>
        <mxCell id="abDruwCRlRrZRBbUpxFw-45" value="아이템 가격" style="shape=partialRectangle;connectable=0;fillColor=#dae8fc;top=0;left=0;bottom=0;right=0;align=left;spacingLeft=6;overflow=hidden;strokeColor=#6c8ebf;" vertex="1" parent="abDruwCRlRrZRBbUpxFw-43">
          <mxGeometry x="30" width="150" height="30" as="geometry">
            <mxRectangle width="150" height="30" as="alternateBounds" />
          </mxGeometry>
        </mxCell>
        <mxCell id="abDruwCRlRrZRBbUpxFw-46" value="" style="endArrow=classic;html=1;rounded=0;exitX=1;exitY=0.5;exitDx=0;exitDy=0;entryX=0;entryY=0.5;entryDx=0;entryDy=0;" edge="1" parent="1" source="abDruwCRlRrZRBbUpxFw-5" target="abDruwCRlRrZRBbUpxFw-24">
          <mxGeometry width="50" height="50" relative="1" as="geometry">
            <mxPoint x="80" y="400" as="sourcePoint" />
            <mxPoint x="130" y="350" as="targetPoint" />
          </mxGeometry>
        </mxCell>
        <mxCell id="abDruwCRlRrZRBbUpxFw-47" value="" style="endArrow=classic;html=1;rounded=0;exitX=1;exitY=0.5;exitDx=0;exitDy=0;entryX=0;entryY=0.5;entryDx=0;entryDy=0;" edge="1" parent="1" source="abDruwCRlRrZRBbUpxFw-21" target="abDruwCRlRrZRBbUpxFw-37">
          <mxGeometry width="50" height="50" relative="1" as="geometry">
            <mxPoint x="360" y="330" as="sourcePoint" />
            <mxPoint x="460" y="330" as="targetPoint" />
          </mxGeometry>
        </mxCell>
        <mxCell id="abDruwCRlRrZRBbUpxFw-48" value="모놀리식 구조" style="text;html=1;strokeColor=none;fillColor=none;align=center;verticalAlign=middle;whiteSpace=wrap;rounded=0;" vertex="1" parent="1">
          <mxGeometry x="-240" y="-30" width="100" height="30" as="geometry" />
        </mxCell>
        <mxCell id="abDruwCRlRrZRBbUpxFw-49" value="" style="rounded=0;whiteSpace=wrap;html=1;" vertex="1" parent="1">
          <mxGeometry x="-200" y="600" width="260" height="280" as="geometry" />
        </mxCell>
        <mxCell id="abDruwCRlRrZRBbUpxFw-50" value="회원" style="shape=table;startSize=30;container=1;collapsible=1;childLayout=tableLayout;fixedRows=1;rowLines=0;fontStyle=1;align=center;resizeLast=1;fillColor=#d5e8d4;strokeColor=#82b366;" vertex="1" parent="1">
          <mxGeometry x="-160" y="640" width="180" height="190" as="geometry">
            <mxRectangle x="240" y="210" width="60" height="30" as="alternateBounds" />
          </mxGeometry>
        </mxCell>
        <mxCell id="abDruwCRlRrZRBbUpxFw-51" value="" style="shape=tableRow;horizontal=0;startSize=0;swimlaneHead=0;swimlaneBody=0;fillColor=#d5e8d4;collapsible=0;dropTarget=0;points=[[0,0.5],[1,0.5]];portConstraint=eastwest;top=0;left=0;right=0;bottom=1;strokeColor=#82b366;" vertex="1" parent="abDruwCRlRrZRBbUpxFw-50">
          <mxGeometry y="30" width="180" height="30" as="geometry" />
        </mxCell>
        <mxCell id="abDruwCRlRrZRBbUpxFw-52" value="PK" style="shape=partialRectangle;connectable=0;fillColor=#d5e8d4;top=0;left=0;bottom=0;right=0;fontStyle=1;overflow=hidden;strokeColor=#82b366;" vertex="1" parent="abDruwCRlRrZRBbUpxFw-51">
          <mxGeometry width="30" height="30" as="geometry">
            <mxRectangle width="30" height="30" as="alternateBounds" />
          </mxGeometry>
        </mxCell>
        <mxCell id="abDruwCRlRrZRBbUpxFw-53" value="UniqueID" style="shape=partialRectangle;connectable=0;fillColor=#d5e8d4;top=0;left=0;bottom=0;right=0;align=left;spacingLeft=6;fontStyle=5;overflow=hidden;strokeColor=#82b366;" vertex="1" parent="abDruwCRlRrZRBbUpxFw-51">
          <mxGeometry x="30" width="150" height="30" as="geometry">
            <mxRectangle width="150" height="30" as="alternateBounds" />
          </mxGeometry>
        </mxCell>
        <mxCell id="abDruwCRlRrZRBbUpxFw-54" value="" style="shape=tableRow;horizontal=0;startSize=0;swimlaneHead=0;swimlaneBody=0;fillColor=#d5e8d4;collapsible=0;dropTarget=0;points=[[0,0.5],[1,0.5]];portConstraint=eastwest;top=0;left=0;right=0;bottom=0;strokeColor=#82b366;" vertex="1" parent="abDruwCRlRrZRBbUpxFw-50">
          <mxGeometry y="60" width="180" height="30" as="geometry" />
        </mxCell>
        <mxCell id="abDruwCRlRrZRBbUpxFw-55" value="" style="shape=partialRectangle;connectable=0;fillColor=#d5e8d4;top=0;left=0;bottom=0;right=0;editable=1;overflow=hidden;strokeColor=#82b366;" vertex="1" parent="abDruwCRlRrZRBbUpxFw-54">
          <mxGeometry width="30" height="30" as="geometry">
            <mxRectangle width="30" height="30" as="alternateBounds" />
          </mxGeometry>
        </mxCell>
        <mxCell id="abDruwCRlRrZRBbUpxFw-56" value="이름" style="shape=partialRectangle;connectable=0;fillColor=#d5e8d4;top=0;left=0;bottom=0;right=0;align=left;spacingLeft=6;overflow=hidden;strokeColor=#82b366;" vertex="1" parent="abDruwCRlRrZRBbUpxFw-54">
          <mxGeometry x="30" width="150" height="30" as="geometry">
            <mxRectangle width="150" height="30" as="alternateBounds" />
          </mxGeometry>
        </mxCell>
        <mxCell id="abDruwCRlRrZRBbUpxFw-57" value="" style="shape=tableRow;horizontal=0;startSize=0;swimlaneHead=0;swimlaneBody=0;fillColor=#d5e8d4;collapsible=0;dropTarget=0;points=[[0,0.5],[1,0.5]];portConstraint=eastwest;top=0;left=0;right=0;bottom=0;strokeColor=#82b366;" vertex="1" parent="abDruwCRlRrZRBbUpxFw-50">
          <mxGeometry y="90" width="180" height="30" as="geometry" />
        </mxCell>
        <mxCell id="abDruwCRlRrZRBbUpxFw-58" value="" style="shape=partialRectangle;connectable=0;fillColor=#d5e8d4;top=0;left=0;bottom=0;right=0;editable=1;overflow=hidden;strokeColor=#82b366;" vertex="1" parent="abDruwCRlRrZRBbUpxFw-57">
          <mxGeometry width="30" height="30" as="geometry">
            <mxRectangle width="30" height="30" as="alternateBounds" />
          </mxGeometry>
        </mxCell>
        <mxCell id="abDruwCRlRrZRBbUpxFw-59" value="이메일" style="shape=partialRectangle;connectable=0;fillColor=#d5e8d4;top=0;left=0;bottom=0;right=0;align=left;spacingLeft=6;overflow=hidden;strokeColor=#82b366;" vertex="1" parent="abDruwCRlRrZRBbUpxFw-57">
          <mxGeometry x="30" width="150" height="30" as="geometry">
            <mxRectangle width="150" height="30" as="alternateBounds" />
          </mxGeometry>
        </mxCell>
        <mxCell id="abDruwCRlRrZRBbUpxFw-60" style="shape=tableRow;horizontal=0;startSize=0;swimlaneHead=0;swimlaneBody=0;fillColor=#d5e8d4;collapsible=0;dropTarget=0;points=[[0,0.5],[1,0.5]];portConstraint=eastwest;top=0;left=0;right=0;bottom=0;strokeColor=#82b366;" vertex="1" parent="abDruwCRlRrZRBbUpxFw-50">
          <mxGeometry y="120" width="180" height="30" as="geometry" />
        </mxCell>
        <mxCell id="abDruwCRlRrZRBbUpxFw-61" style="shape=partialRectangle;connectable=0;fillColor=#d5e8d4;top=0;left=0;bottom=0;right=0;editable=1;overflow=hidden;strokeColor=#82b366;" vertex="1" parent="abDruwCRlRrZRBbUpxFw-60">
          <mxGeometry width="30" height="30" as="geometry">
            <mxRectangle width="30" height="30" as="alternateBounds" />
          </mxGeometry>
        </mxCell>
        <mxCell id="abDruwCRlRrZRBbUpxFw-62" value="전화번호" style="shape=partialRectangle;connectable=0;fillColor=#d5e8d4;top=0;left=0;bottom=0;right=0;align=left;spacingLeft=6;overflow=hidden;strokeColor=#82b366;" vertex="1" parent="abDruwCRlRrZRBbUpxFw-60">
          <mxGeometry x="30" width="150" height="30" as="geometry">
            <mxRectangle width="150" height="30" as="alternateBounds" />
          </mxGeometry>
        </mxCell>
        <mxCell id="abDruwCRlRrZRBbUpxFw-63" value="" style="shape=tableRow;horizontal=0;startSize=0;swimlaneHead=0;swimlaneBody=0;fillColor=#d5e8d4;collapsible=0;dropTarget=0;points=[[0,0.5],[1,0.5]];portConstraint=eastwest;top=0;left=0;right=0;bottom=0;strokeColor=#82b366;" vertex="1" parent="abDruwCRlRrZRBbUpxFw-50">
          <mxGeometry y="150" width="180" height="30" as="geometry" />
        </mxCell>
        <mxCell id="abDruwCRlRrZRBbUpxFw-64" value="" style="shape=partialRectangle;connectable=0;fillColor=#d5e8d4;top=0;left=0;bottom=0;right=0;editable=1;overflow=hidden;strokeColor=#82b366;" vertex="1" parent="abDruwCRlRrZRBbUpxFw-63">
          <mxGeometry width="30" height="30" as="geometry">
            <mxRectangle width="30" height="30" as="alternateBounds" />
          </mxGeometry>
        </mxCell>
        <mxCell id="abDruwCRlRrZRBbUpxFw-65" value="주문 리스트" style="shape=partialRectangle;connectable=0;fillColor=#d5e8d4;top=0;left=0;bottom=0;right=0;align=left;spacingLeft=6;overflow=hidden;strokeColor=#82b366;" vertex="1" parent="abDruwCRlRrZRBbUpxFw-63">
          <mxGeometry x="30" width="150" height="30" as="geometry">
            <mxRectangle width="150" height="30" as="alternateBounds" />
          </mxGeometry>
        </mxCell>
        <mxCell id="abDruwCRlRrZRBbUpxFw-66" value="MSA" style="text;html=1;strokeColor=none;fillColor=none;align=center;verticalAlign=middle;whiteSpace=wrap;rounded=0;" vertex="1" parent="1">
          <mxGeometry x="-230" y="480" width="70" height="30" as="geometry" />
        </mxCell>
        <mxCell id="abDruwCRlRrZRBbUpxFw-67" value="회원 서비스" style="text;html=1;strokeColor=none;fillColor=none;align=center;verticalAlign=middle;whiteSpace=wrap;rounded=0;" vertex="1" parent="1">
          <mxGeometry x="-200" y="570" width="80" height="30" as="geometry" />
        </mxCell>
        <mxCell id="abDruwCRlRrZRBbUpxFw-68" value="" style="rounded=0;whiteSpace=wrap;html=1;" vertex="1" parent="1">
          <mxGeometry x="180" y="600" width="260" height="240" as="geometry" />
        </mxCell>
        <mxCell id="abDruwCRlRrZRBbUpxFw-69" value="주문" style="shape=table;startSize=30;container=1;collapsible=1;childLayout=tableLayout;fixedRows=1;rowLines=0;fontStyle=1;align=center;resizeLast=1;fillColor=#dae8fc;strokeColor=#6c8ebf;" vertex="1" parent="1">
          <mxGeometry x="220" y="640" width="180" height="160" as="geometry">
            <mxRectangle x="240" y="210" width="60" height="30" as="alternateBounds" />
          </mxGeometry>
        </mxCell>
        <mxCell id="abDruwCRlRrZRBbUpxFw-70" value="" style="shape=tableRow;horizontal=0;startSize=0;swimlaneHead=0;swimlaneBody=0;fillColor=#dae8fc;collapsible=0;dropTarget=0;points=[[0,0.5],[1,0.5]];portConstraint=eastwest;top=0;left=0;right=0;bottom=1;strokeColor=#6c8ebf;" vertex="1" parent="abDruwCRlRrZRBbUpxFw-69">
          <mxGeometry y="30" width="180" height="30" as="geometry" />
        </mxCell>
        <mxCell id="abDruwCRlRrZRBbUpxFw-71" value="PK" style="shape=partialRectangle;connectable=0;fillColor=#dae8fc;top=0;left=0;bottom=0;right=0;fontStyle=1;overflow=hidden;strokeColor=#6c8ebf;" vertex="1" parent="abDruwCRlRrZRBbUpxFw-70">
          <mxGeometry width="30" height="30" as="geometry">
            <mxRectangle width="30" height="30" as="alternateBounds" />
          </mxGeometry>
        </mxCell>
        <mxCell id="abDruwCRlRrZRBbUpxFw-72" value="UniqueID" style="shape=partialRectangle;connectable=0;fillColor=#dae8fc;top=0;left=0;bottom=0;right=0;align=left;spacingLeft=6;fontStyle=5;overflow=hidden;strokeColor=#6c8ebf;" vertex="1" parent="abDruwCRlRrZRBbUpxFw-70">
          <mxGeometry x="30" width="150" height="30" as="geometry">
            <mxRectangle width="150" height="30" as="alternateBounds" />
          </mxGeometry>
        </mxCell>
        <mxCell id="abDruwCRlRrZRBbUpxFw-73" value="" style="shape=tableRow;horizontal=0;startSize=0;swimlaneHead=0;swimlaneBody=0;fillColor=#dae8fc;collapsible=0;dropTarget=0;points=[[0,0.5],[1,0.5]];portConstraint=eastwest;top=0;left=0;right=0;bottom=0;strokeColor=#6c8ebf;" vertex="1" parent="abDruwCRlRrZRBbUpxFw-69">
          <mxGeometry y="60" width="180" height="30" as="geometry" />
        </mxCell>
        <mxCell id="abDruwCRlRrZRBbUpxFw-74" value="" style="shape=partialRectangle;connectable=0;fillColor=#dae8fc;top=0;left=0;bottom=0;right=0;editable=1;overflow=hidden;strokeColor=#6c8ebf;" vertex="1" parent="abDruwCRlRrZRBbUpxFw-73">
          <mxGeometry width="30" height="30" as="geometry">
            <mxRectangle width="30" height="30" as="alternateBounds" />
          </mxGeometry>
        </mxCell>
        <mxCell id="abDruwCRlRrZRBbUpxFw-75" value="회원 id" style="shape=partialRectangle;connectable=0;fillColor=#dae8fc;top=0;left=0;bottom=0;right=0;align=left;spacingLeft=6;overflow=hidden;strokeColor=#6c8ebf;" vertex="1" parent="abDruwCRlRrZRBbUpxFw-73">
          <mxGeometry x="30" width="150" height="30" as="geometry">
            <mxRectangle width="150" height="30" as="alternateBounds" />
          </mxGeometry>
        </mxCell>
        <mxCell id="abDruwCRlRrZRBbUpxFw-76" value="" style="shape=tableRow;horizontal=0;startSize=0;swimlaneHead=0;swimlaneBody=0;fillColor=#dae8fc;collapsible=0;dropTarget=0;points=[[0,0.5],[1,0.5]];portConstraint=eastwest;top=0;left=0;right=0;bottom=0;strokeColor=#6c8ebf;" vertex="1" parent="abDruwCRlRrZRBbUpxFw-69">
          <mxGeometry y="90" width="180" height="30" as="geometry" />
        </mxCell>
        <mxCell id="abDruwCRlRrZRBbUpxFw-77" value="" style="shape=partialRectangle;connectable=0;fillColor=#dae8fc;top=0;left=0;bottom=0;right=0;editable=1;overflow=hidden;strokeColor=#6c8ebf;" vertex="1" parent="abDruwCRlRrZRBbUpxFw-76">
          <mxGeometry width="30" height="30" as="geometry">
            <mxRectangle width="30" height="30" as="alternateBounds" />
          </mxGeometry>
        </mxCell>
        <mxCell id="abDruwCRlRrZRBbUpxFw-78" value="주문 날짜" style="shape=partialRectangle;connectable=0;fillColor=#dae8fc;top=0;left=0;bottom=0;right=0;align=left;spacingLeft=6;overflow=hidden;strokeColor=#6c8ebf;" vertex="1" parent="abDruwCRlRrZRBbUpxFw-76">
          <mxGeometry x="30" width="150" height="30" as="geometry">
            <mxRectangle width="150" height="30" as="alternateBounds" />
          </mxGeometry>
        </mxCell>
        <mxCell id="abDruwCRlRrZRBbUpxFw-79" style="shape=tableRow;horizontal=0;startSize=0;swimlaneHead=0;swimlaneBody=0;fillColor=#dae8fc;collapsible=0;dropTarget=0;points=[[0,0.5],[1,0.5]];portConstraint=eastwest;top=0;left=0;right=0;bottom=0;strokeColor=#6c8ebf;" vertex="1" parent="abDruwCRlRrZRBbUpxFw-69">
          <mxGeometry y="120" width="180" height="30" as="geometry" />
        </mxCell>
        <mxCell id="abDruwCRlRrZRBbUpxFw-80" style="shape=partialRectangle;connectable=0;fillColor=#dae8fc;top=0;left=0;bottom=0;right=0;editable=1;overflow=hidden;strokeColor=#6c8ebf;" vertex="1" parent="abDruwCRlRrZRBbUpxFw-79">
          <mxGeometry width="30" height="30" as="geometry">
            <mxRectangle width="30" height="30" as="alternateBounds" />
          </mxGeometry>
        </mxCell>
        <mxCell id="abDruwCRlRrZRBbUpxFw-81" value="주문 아이템 리스트" style="shape=partialRectangle;connectable=0;fillColor=#dae8fc;top=0;left=0;bottom=0;right=0;align=left;spacingLeft=6;overflow=hidden;strokeColor=#6c8ebf;" vertex="1" parent="abDruwCRlRrZRBbUpxFw-79">
          <mxGeometry x="30" width="150" height="30" as="geometry">
            <mxRectangle width="150" height="30" as="alternateBounds" />
          </mxGeometry>
        </mxCell>
        <mxCell id="abDruwCRlRrZRBbUpxFw-82" value="주문 서비스" style="text;html=1;strokeColor=none;fillColor=none;align=center;verticalAlign=middle;whiteSpace=wrap;rounded=0;" vertex="1" parent="1">
          <mxGeometry x="180" y="570" width="80" height="30" as="geometry" />
        </mxCell>
        <mxCell id="abDruwCRlRrZRBbUpxFw-83" value="" style="rounded=0;whiteSpace=wrap;html=1;" vertex="1" parent="1">
          <mxGeometry x="550" y="600" width="260" height="240" as="geometry" />
        </mxCell>
        <mxCell id="abDruwCRlRrZRBbUpxFw-84" value="아이템" style="shape=table;startSize=30;container=1;collapsible=1;childLayout=tableLayout;fixedRows=1;rowLines=0;fontStyle=1;align=center;resizeLast=1;fillColor=#f8cecc;strokeColor=#b85450;" vertex="1" parent="1">
          <mxGeometry x="590" y="640" width="180" height="160" as="geometry">
            <mxRectangle x="240" y="210" width="60" height="30" as="alternateBounds" />
          </mxGeometry>
        </mxCell>
        <mxCell id="abDruwCRlRrZRBbUpxFw-85" value="" style="shape=tableRow;horizontal=0;startSize=0;swimlaneHead=0;swimlaneBody=0;fillColor=#f8cecc;collapsible=0;dropTarget=0;points=[[0,0.5],[1,0.5]];portConstraint=eastwest;top=0;left=0;right=0;bottom=1;strokeColor=#b85450;" vertex="1" parent="abDruwCRlRrZRBbUpxFw-84">
          <mxGeometry y="30" width="180" height="30" as="geometry" />
        </mxCell>
        <mxCell id="abDruwCRlRrZRBbUpxFw-86" value="PK" style="shape=partialRectangle;connectable=0;fillColor=#f8cecc;top=0;left=0;bottom=0;right=0;fontStyle=1;overflow=hidden;strokeColor=#b85450;" vertex="1" parent="abDruwCRlRrZRBbUpxFw-85">
          <mxGeometry width="30" height="30" as="geometry">
            <mxRectangle width="30" height="30" as="alternateBounds" />
          </mxGeometry>
        </mxCell>
        <mxCell id="abDruwCRlRrZRBbUpxFw-87" value="UniqueID" style="shape=partialRectangle;connectable=0;fillColor=#f8cecc;top=0;left=0;bottom=0;right=0;align=left;spacingLeft=6;fontStyle=5;overflow=hidden;strokeColor=#b85450;" vertex="1" parent="abDruwCRlRrZRBbUpxFw-85">
          <mxGeometry x="30" width="150" height="30" as="geometry">
            <mxRectangle width="150" height="30" as="alternateBounds" />
          </mxGeometry>
        </mxCell>
        <mxCell id="abDruwCRlRrZRBbUpxFw-88" value="" style="shape=tableRow;horizontal=0;startSize=0;swimlaneHead=0;swimlaneBody=0;fillColor=#f8cecc;collapsible=0;dropTarget=0;points=[[0,0.5],[1,0.5]];portConstraint=eastwest;top=0;left=0;right=0;bottom=0;strokeColor=#b85450;" vertex="1" parent="abDruwCRlRrZRBbUpxFw-84">
          <mxGeometry y="60" width="180" height="30" as="geometry" />
        </mxCell>
        <mxCell id="abDruwCRlRrZRBbUpxFw-89" value="" style="shape=partialRectangle;connectable=0;fillColor=#f8cecc;top=0;left=0;bottom=0;right=0;editable=1;overflow=hidden;strokeColor=#b85450;" vertex="1" parent="abDruwCRlRrZRBbUpxFw-88">
          <mxGeometry width="30" height="30" as="geometry">
            <mxRectangle width="30" height="30" as="alternateBounds" />
          </mxGeometry>
        </mxCell>
        <mxCell id="abDruwCRlRrZRBbUpxFw-90" value="주문 id" style="shape=partialRectangle;connectable=0;fillColor=#f8cecc;top=0;left=0;bottom=0;right=0;align=left;spacingLeft=6;overflow=hidden;strokeColor=#b85450;" vertex="1" parent="abDruwCRlRrZRBbUpxFw-88">
          <mxGeometry x="30" width="150" height="30" as="geometry">
            <mxRectangle width="150" height="30" as="alternateBounds" />
          </mxGeometry>
        </mxCell>
        <mxCell id="abDruwCRlRrZRBbUpxFw-91" value="" style="shape=tableRow;horizontal=0;startSize=0;swimlaneHead=0;swimlaneBody=0;fillColor=#f8cecc;collapsible=0;dropTarget=0;points=[[0,0.5],[1,0.5]];portConstraint=eastwest;top=0;left=0;right=0;bottom=0;strokeColor=#b85450;" vertex="1" parent="abDruwCRlRrZRBbUpxFw-84">
          <mxGeometry y="90" width="180" height="30" as="geometry" />
        </mxCell>
        <mxCell id="abDruwCRlRrZRBbUpxFw-92" value="" style="shape=partialRectangle;connectable=0;fillColor=#f8cecc;top=0;left=0;bottom=0;right=0;editable=1;overflow=hidden;strokeColor=#b85450;" vertex="1" parent="abDruwCRlRrZRBbUpxFw-91">
          <mxGeometry width="30" height="30" as="geometry">
            <mxRectangle width="30" height="30" as="alternateBounds" />
          </mxGeometry>
        </mxCell>
        <mxCell id="abDruwCRlRrZRBbUpxFw-93" value="아이템 이름" style="shape=partialRectangle;connectable=0;fillColor=#f8cecc;top=0;left=0;bottom=0;right=0;align=left;spacingLeft=6;overflow=hidden;strokeColor=#b85450;" vertex="1" parent="abDruwCRlRrZRBbUpxFw-91">
          <mxGeometry x="30" width="150" height="30" as="geometry">
            <mxRectangle width="150" height="30" as="alternateBounds" />
          </mxGeometry>
        </mxCell>
        <mxCell id="abDruwCRlRrZRBbUpxFw-94" style="shape=tableRow;horizontal=0;startSize=0;swimlaneHead=0;swimlaneBody=0;fillColor=#f8cecc;collapsible=0;dropTarget=0;points=[[0,0.5],[1,0.5]];portConstraint=eastwest;top=0;left=0;right=0;bottom=0;strokeColor=#b85450;" vertex="1" parent="abDruwCRlRrZRBbUpxFw-84">
          <mxGeometry y="120" width="180" height="30" as="geometry" />
        </mxCell>
        <mxCell id="abDruwCRlRrZRBbUpxFw-95" style="shape=partialRectangle;connectable=0;fillColor=#f8cecc;top=0;left=0;bottom=0;right=0;editable=1;overflow=hidden;strokeColor=#b85450;" vertex="1" parent="abDruwCRlRrZRBbUpxFw-94">
          <mxGeometry width="30" height="30" as="geometry">
            <mxRectangle width="30" height="30" as="alternateBounds" />
          </mxGeometry>
        </mxCell>
        <mxCell id="abDruwCRlRrZRBbUpxFw-96" value="아이템 가격" style="shape=partialRectangle;connectable=0;fillColor=#f8cecc;top=0;left=0;bottom=0;right=0;align=left;spacingLeft=6;overflow=hidden;strokeColor=#b85450;" vertex="1" parent="abDruwCRlRrZRBbUpxFw-94">
          <mxGeometry x="30" width="150" height="30" as="geometry">
            <mxRectangle width="150" height="30" as="alternateBounds" />
          </mxGeometry>
        </mxCell>
        <mxCell id="abDruwCRlRrZRBbUpxFw-97" value="아이템 서비스" style="text;html=1;strokeColor=none;fillColor=none;align=center;verticalAlign=middle;whiteSpace=wrap;rounded=0;" vertex="1" parent="1">
          <mxGeometry x="550" y="570" width="80" height="30" as="geometry" />
        </mxCell>
        <mxCell id="abDruwCRlRrZRBbUpxFw-98" value="e-커머스 서비스" style="text;html=1;strokeColor=none;fillColor=none;align=center;verticalAlign=middle;whiteSpace=wrap;rounded=0;" vertex="1" parent="1">
          <mxGeometry x="-190" y="50" width="100" height="30" as="geometry" />
        </mxCell>
      </root>
    </mxGraphModel>
  </diagram>
</mxfile>
